%TF.GenerationSoftware,KiCad,Pcbnew,6.0.8-1.fc36*%
%TF.CreationDate,2022-11-05T02:53:20+01:00*%
%TF.ProjectId,recruiting,72656372-7569-4746-996e-672e6b696361,V0*%
%TF.SameCoordinates,Original*%
%TF.FileFunction,Drillmap*%
%TF.FilePolarity,Positive*%
%FSLAX45Y45*%
G04 Gerber Fmt 4.5, Leading zero omitted, Abs format (unit mm)*
G04 Created by KiCad (PCBNEW 6.0.8-1.fc36) date 2022-11-05 02:53:20*
%MOMM*%
%LPD*%
G01*
G04 APERTURE LIST*
%ADD10C,0.050000*%
%ADD11C,0.200000*%
%ADD12C,0.040000*%
%ADD13C,0.080000*%
%ADD14C,0.120000*%
%ADD15C,0.125000*%
G04 APERTURE END LIST*
D10*
X10052250Y-6477000D02*
X17926250Y-6477000D01*
X17926250Y-6477000D02*
X17926250Y-10795000D01*
X17926250Y-10795000D02*
X10052250Y-10795000D01*
X10052250Y-10795000D02*
X10052250Y-6477000D01*
D11*
D12*
X11429250Y-10140000D02*
X11469250Y-10180000D01*
X11469250Y-10140000D02*
X11429250Y-10180000D01*
X15620250Y-8489000D02*
X15660250Y-8529000D01*
X15660250Y-8489000D02*
X15620250Y-8529000D01*
X17188000Y-9632000D02*
X17228000Y-9672000D01*
X17228000Y-9632000D02*
X17188000Y-9672000D01*
D13*
X12105000Y-6984500D02*
G75*
G03*
X12105000Y-6984500I-40000J0D01*
G01*
X12105000Y-7746500D02*
G75*
G03*
X12105000Y-7746500I-40000J0D01*
G01*
X12359000Y-6984500D02*
G75*
G03*
X12359000Y-6984500I-40000J0D01*
G01*
X12359000Y-7746500D02*
G75*
G03*
X12359000Y-7746500I-40000J0D01*
G01*
X13629000Y-6984500D02*
G75*
G03*
X13629000Y-6984500I-40000J0D01*
G01*
X13629000Y-7746500D02*
G75*
G03*
X13629000Y-7746500I-40000J0D01*
G01*
X13883000Y-6984500D02*
G75*
G03*
X13883000Y-6984500I-40000J0D01*
G01*
X13883000Y-7746500D02*
G75*
G03*
X13883000Y-7746500I-40000J0D01*
G01*
X14900000Y-6984000D02*
G75*
G03*
X14900000Y-6984000I-40000J0D01*
G01*
X14900000Y-7746000D02*
G75*
G03*
X14900000Y-7746000I-40000J0D01*
G01*
X15154000Y-6984000D02*
G75*
G03*
X15154000Y-6984000I-40000J0D01*
G01*
X15154000Y-7746000D02*
G75*
G03*
X15154000Y-7746000I-40000J0D01*
G01*
X15408000Y-6984000D02*
G75*
G03*
X15408000Y-6984000I-40000J0D01*
G01*
X15408000Y-7746000D02*
G75*
G03*
X15408000Y-7746000I-40000J0D01*
G01*
X15662000Y-6984000D02*
G75*
G03*
X15662000Y-6984000I-40000J0D01*
G01*
X15662000Y-7746000D02*
G75*
G03*
X15662000Y-7746000I-40000J0D01*
G01*
X16702250Y-6985000D02*
G75*
G03*
X16702250Y-6985000I-40000J0D01*
G01*
X17452250Y-6985000D02*
G75*
G03*
X17452250Y-6985000I-40000J0D01*
G01*
D14*
X10668000Y-8449000D02*
X10668000Y-8569000D01*
X10608000Y-8509000D02*
X10728000Y-8509000D01*
X10668000Y-8799000D02*
X10668000Y-8919000D01*
X10608000Y-8859000D02*
X10728000Y-8859000D01*
X10668000Y-10100000D02*
X10668000Y-10220000D01*
X10608000Y-10160000D02*
X10728000Y-10160000D01*
X10668000Y-10450000D02*
X10668000Y-10570000D01*
X10608000Y-10510000D02*
X10728000Y-10510000D01*
X10687250Y-6798000D02*
X10687250Y-6918000D01*
X10627250Y-6858000D02*
X10747250Y-6858000D01*
X10687250Y-7148000D02*
X10687250Y-7268000D01*
X10627250Y-7208000D02*
X10747250Y-7208000D01*
D15*
X12490195Y-8426195D02*
X12490195Y-8337805D01*
X12401805Y-8337805D01*
X12401805Y-8426195D01*
X12490195Y-8426195D01*
X12490195Y-9442195D02*
X12490195Y-9353805D01*
X12401805Y-9353805D01*
X12401805Y-9442195D01*
X12490195Y-9442195D01*
X12490195Y-10458195D02*
X12490195Y-10369805D01*
X12401805Y-10369805D01*
X12401805Y-10458195D01*
X12490195Y-10458195D01*
X14522195Y-9188195D02*
X14522195Y-9099805D01*
X14433805Y-9099805D01*
X14433805Y-9188195D01*
X14522195Y-9188195D01*
X14522195Y-9696195D02*
X14522195Y-9607805D01*
X14433805Y-9607805D01*
X14433805Y-9696195D01*
X14522195Y-9696195D01*
X14522195Y-10458195D02*
X14522195Y-10369805D01*
X14433805Y-10369805D01*
X14433805Y-10458195D01*
X14522195Y-10458195D01*
D11*
X10307369Y-11107976D02*
X10307369Y-10907976D01*
X10354988Y-10907976D01*
X10383560Y-10917500D01*
X10402607Y-10936548D01*
X10412131Y-10955595D01*
X10421655Y-10993690D01*
X10421655Y-11022262D01*
X10412131Y-11060357D01*
X10402607Y-11079405D01*
X10383560Y-11098452D01*
X10354988Y-11107976D01*
X10307369Y-11107976D01*
X10507369Y-11107976D02*
X10507369Y-10974643D01*
X10507369Y-11012738D02*
X10516893Y-10993690D01*
X10526417Y-10984167D01*
X10545464Y-10974643D01*
X10564512Y-10974643D01*
X10631179Y-11107976D02*
X10631179Y-10974643D01*
X10631179Y-10907976D02*
X10621655Y-10917500D01*
X10631179Y-10927024D01*
X10640702Y-10917500D01*
X10631179Y-10907976D01*
X10631179Y-10927024D01*
X10754988Y-11107976D02*
X10735940Y-11098452D01*
X10726417Y-11079405D01*
X10726417Y-10907976D01*
X10859750Y-11107976D02*
X10840702Y-11098452D01*
X10831179Y-11079405D01*
X10831179Y-10907976D01*
X11088321Y-11107976D02*
X11088321Y-10907976D01*
X11154988Y-11050833D01*
X11221655Y-10907976D01*
X11221655Y-11107976D01*
X11402607Y-11107976D02*
X11402607Y-11003214D01*
X11393083Y-10984167D01*
X11374036Y-10974643D01*
X11335940Y-10974643D01*
X11316893Y-10984167D01*
X11402607Y-11098452D02*
X11383559Y-11107976D01*
X11335940Y-11107976D01*
X11316893Y-11098452D01*
X11307369Y-11079405D01*
X11307369Y-11060357D01*
X11316893Y-11041310D01*
X11335940Y-11031786D01*
X11383559Y-11031786D01*
X11402607Y-11022262D01*
X11497845Y-10974643D02*
X11497845Y-11174643D01*
X11497845Y-10984167D02*
X11516893Y-10974643D01*
X11554988Y-10974643D01*
X11574036Y-10984167D01*
X11583559Y-10993690D01*
X11593083Y-11012738D01*
X11593083Y-11069881D01*
X11583559Y-11088929D01*
X11574036Y-11098452D01*
X11554988Y-11107976D01*
X11516893Y-11107976D01*
X11497845Y-11098452D01*
X11678798Y-11088929D02*
X11688321Y-11098452D01*
X11678798Y-11107976D01*
X11669274Y-11098452D01*
X11678798Y-11088929D01*
X11678798Y-11107976D01*
X11678798Y-10984167D02*
X11688321Y-10993690D01*
X11678798Y-11003214D01*
X11669274Y-10993690D01*
X11678798Y-10984167D01*
X11678798Y-11003214D01*
D12*
X10009750Y-11417500D02*
X10049750Y-11457500D01*
X10049750Y-11417500D02*
X10009750Y-11457500D01*
D11*
X10345464Y-11327976D02*
X10364512Y-11327976D01*
X10383560Y-11337500D01*
X10393083Y-11347024D01*
X10402607Y-11366071D01*
X10412131Y-11404167D01*
X10412131Y-11451786D01*
X10402607Y-11489881D01*
X10393083Y-11508928D01*
X10383560Y-11518452D01*
X10364512Y-11527976D01*
X10345464Y-11527976D01*
X10326417Y-11518452D01*
X10316893Y-11508928D01*
X10307369Y-11489881D01*
X10297845Y-11451786D01*
X10297845Y-11404167D01*
X10307369Y-11366071D01*
X10316893Y-11347024D01*
X10326417Y-11337500D01*
X10345464Y-11327976D01*
X10497845Y-11508928D02*
X10507369Y-11518452D01*
X10497845Y-11527976D01*
X10488321Y-11518452D01*
X10497845Y-11508928D01*
X10497845Y-11527976D01*
X10678798Y-11394643D02*
X10678798Y-11527976D01*
X10631179Y-11318452D02*
X10583560Y-11461309D01*
X10707369Y-11461309D01*
X10821655Y-11327976D02*
X10840702Y-11327976D01*
X10859750Y-11337500D01*
X10869274Y-11347024D01*
X10878798Y-11366071D01*
X10888321Y-11404167D01*
X10888321Y-11451786D01*
X10878798Y-11489881D01*
X10869274Y-11508928D01*
X10859750Y-11518452D01*
X10840702Y-11527976D01*
X10821655Y-11527976D01*
X10802607Y-11518452D01*
X10793083Y-11508928D01*
X10783560Y-11489881D01*
X10774036Y-11451786D01*
X10774036Y-11404167D01*
X10783560Y-11366071D01*
X10793083Y-11347024D01*
X10802607Y-11337500D01*
X10821655Y-11327976D01*
X11012131Y-11327976D02*
X11031179Y-11327976D01*
X11050226Y-11337500D01*
X11059750Y-11347024D01*
X11069274Y-11366071D01*
X11078798Y-11404167D01*
X11078798Y-11451786D01*
X11069274Y-11489881D01*
X11059750Y-11508928D01*
X11050226Y-11518452D01*
X11031179Y-11527976D01*
X11012131Y-11527976D01*
X10993083Y-11518452D01*
X10983560Y-11508928D01*
X10974036Y-11489881D01*
X10964512Y-11451786D01*
X10964512Y-11404167D01*
X10974036Y-11366071D01*
X10983560Y-11347024D01*
X10993083Y-11337500D01*
X11012131Y-11327976D01*
X11164512Y-11527976D02*
X11164512Y-11394643D01*
X11164512Y-11413690D02*
X11174036Y-11404167D01*
X11193083Y-11394643D01*
X11221655Y-11394643D01*
X11240702Y-11404167D01*
X11250226Y-11423214D01*
X11250226Y-11527976D01*
X11250226Y-11423214D02*
X11259750Y-11404167D01*
X11278798Y-11394643D01*
X11307369Y-11394643D01*
X11326417Y-11404167D01*
X11335940Y-11423214D01*
X11335940Y-11527976D01*
X11431178Y-11527976D02*
X11431178Y-11394643D01*
X11431178Y-11413690D02*
X11440702Y-11404167D01*
X11459750Y-11394643D01*
X11488321Y-11394643D01*
X11507369Y-11404167D01*
X11516893Y-11423214D01*
X11516893Y-11527976D01*
X11516893Y-11423214D02*
X11526417Y-11404167D01*
X11545464Y-11394643D01*
X11574036Y-11394643D01*
X11593083Y-11404167D01*
X11602607Y-11423214D01*
X11602607Y-11527976D01*
X11993083Y-11318452D02*
X11821655Y-11575595D01*
X12250226Y-11327976D02*
X12269274Y-11327976D01*
X12288321Y-11337500D01*
X12297845Y-11347024D01*
X12307369Y-11366071D01*
X12316893Y-11404167D01*
X12316893Y-11451786D01*
X12307369Y-11489881D01*
X12297845Y-11508928D01*
X12288321Y-11518452D01*
X12269274Y-11527976D01*
X12250226Y-11527976D01*
X12231178Y-11518452D01*
X12221655Y-11508928D01*
X12212131Y-11489881D01*
X12202607Y-11451786D01*
X12202607Y-11404167D01*
X12212131Y-11366071D01*
X12221655Y-11347024D01*
X12231178Y-11337500D01*
X12250226Y-11327976D01*
X12402607Y-11508928D02*
X12412131Y-11518452D01*
X12402607Y-11527976D01*
X12393083Y-11518452D01*
X12402607Y-11508928D01*
X12402607Y-11527976D01*
X12535940Y-11327976D02*
X12554988Y-11327976D01*
X12574036Y-11337500D01*
X12583559Y-11347024D01*
X12593083Y-11366071D01*
X12602607Y-11404167D01*
X12602607Y-11451786D01*
X12593083Y-11489881D01*
X12583559Y-11508928D01*
X12574036Y-11518452D01*
X12554988Y-11527976D01*
X12535940Y-11527976D01*
X12516893Y-11518452D01*
X12507369Y-11508928D01*
X12497845Y-11489881D01*
X12488321Y-11451786D01*
X12488321Y-11404167D01*
X12497845Y-11366071D01*
X12507369Y-11347024D01*
X12516893Y-11337500D01*
X12535940Y-11327976D01*
X12793083Y-11527976D02*
X12678798Y-11527976D01*
X12735940Y-11527976D02*
X12735940Y-11327976D01*
X12716893Y-11356548D01*
X12697845Y-11375595D01*
X12678798Y-11385119D01*
X12974036Y-11327976D02*
X12878798Y-11327976D01*
X12869274Y-11423214D01*
X12878798Y-11413690D01*
X12897845Y-11404167D01*
X12945464Y-11404167D01*
X12964512Y-11413690D01*
X12974036Y-11423214D01*
X12983559Y-11442262D01*
X12983559Y-11489881D01*
X12974036Y-11508928D01*
X12964512Y-11518452D01*
X12945464Y-11527976D01*
X12897845Y-11527976D01*
X12878798Y-11518452D01*
X12869274Y-11508928D01*
X13050226Y-11327976D02*
X13183559Y-11327976D01*
X13097845Y-11527976D01*
X13250226Y-11327976D02*
X13250226Y-11366071D01*
X13326417Y-11327976D02*
X13326417Y-11366071D01*
X13621655Y-11604167D02*
X13612131Y-11594643D01*
X13593083Y-11566071D01*
X13583559Y-11547024D01*
X13574036Y-11518452D01*
X13564512Y-11470833D01*
X13564512Y-11432738D01*
X13574036Y-11385119D01*
X13583559Y-11356548D01*
X13593083Y-11337500D01*
X13612131Y-11308928D01*
X13621655Y-11299405D01*
X13678798Y-11327976D02*
X13802607Y-11327976D01*
X13735940Y-11404167D01*
X13764512Y-11404167D01*
X13783559Y-11413690D01*
X13793083Y-11423214D01*
X13802607Y-11442262D01*
X13802607Y-11489881D01*
X13793083Y-11508928D01*
X13783559Y-11518452D01*
X13764512Y-11527976D01*
X13707369Y-11527976D01*
X13688321Y-11518452D01*
X13678798Y-11508928D01*
X14040702Y-11527976D02*
X14040702Y-11327976D01*
X14126417Y-11527976D02*
X14126417Y-11423214D01*
X14116893Y-11404167D01*
X14097845Y-11394643D01*
X14069274Y-11394643D01*
X14050226Y-11404167D01*
X14040702Y-11413690D01*
X14250226Y-11527976D02*
X14231178Y-11518452D01*
X14221655Y-11508928D01*
X14212131Y-11489881D01*
X14212131Y-11432738D01*
X14221655Y-11413690D01*
X14231178Y-11404167D01*
X14250226Y-11394643D01*
X14278798Y-11394643D01*
X14297845Y-11404167D01*
X14307369Y-11413690D01*
X14316893Y-11432738D01*
X14316893Y-11489881D01*
X14307369Y-11508928D01*
X14297845Y-11518452D01*
X14278798Y-11527976D01*
X14250226Y-11527976D01*
X14431178Y-11527976D02*
X14412131Y-11518452D01*
X14402607Y-11499405D01*
X14402607Y-11327976D01*
X14583559Y-11518452D02*
X14564512Y-11527976D01*
X14526417Y-11527976D01*
X14507369Y-11518452D01*
X14497845Y-11499405D01*
X14497845Y-11423214D01*
X14507369Y-11404167D01*
X14526417Y-11394643D01*
X14564512Y-11394643D01*
X14583559Y-11404167D01*
X14593083Y-11423214D01*
X14593083Y-11442262D01*
X14497845Y-11461309D01*
X14669274Y-11518452D02*
X14688321Y-11527976D01*
X14726417Y-11527976D01*
X14745464Y-11518452D01*
X14754988Y-11499405D01*
X14754988Y-11489881D01*
X14745464Y-11470833D01*
X14726417Y-11461309D01*
X14697845Y-11461309D01*
X14678798Y-11451786D01*
X14669274Y-11432738D01*
X14669274Y-11423214D01*
X14678798Y-11404167D01*
X14697845Y-11394643D01*
X14726417Y-11394643D01*
X14745464Y-11404167D01*
X14821655Y-11604167D02*
X14831178Y-11594643D01*
X14850226Y-11566071D01*
X14859750Y-11547024D01*
X14869274Y-11518452D01*
X14878798Y-11470833D01*
X14878798Y-11432738D01*
X14869274Y-11385119D01*
X14859750Y-11356548D01*
X14850226Y-11337500D01*
X14831178Y-11308928D01*
X14821655Y-11299405D01*
D13*
X10049750Y-11701500D02*
G75*
G03*
X10049750Y-11701500I-40000J0D01*
G01*
D11*
X10345464Y-11591976D02*
X10364512Y-11591976D01*
X10383560Y-11601500D01*
X10393083Y-11611024D01*
X10402607Y-11630071D01*
X10412131Y-11668167D01*
X10412131Y-11715786D01*
X10402607Y-11753881D01*
X10393083Y-11772928D01*
X10383560Y-11782452D01*
X10364512Y-11791976D01*
X10345464Y-11791976D01*
X10326417Y-11782452D01*
X10316893Y-11772928D01*
X10307369Y-11753881D01*
X10297845Y-11715786D01*
X10297845Y-11668167D01*
X10307369Y-11630071D01*
X10316893Y-11611024D01*
X10326417Y-11601500D01*
X10345464Y-11591976D01*
X10497845Y-11772928D02*
X10507369Y-11782452D01*
X10497845Y-11791976D01*
X10488321Y-11782452D01*
X10497845Y-11772928D01*
X10497845Y-11791976D01*
X10621655Y-11677690D02*
X10602607Y-11668167D01*
X10593083Y-11658643D01*
X10583560Y-11639595D01*
X10583560Y-11630071D01*
X10593083Y-11611024D01*
X10602607Y-11601500D01*
X10621655Y-11591976D01*
X10659750Y-11591976D01*
X10678798Y-11601500D01*
X10688321Y-11611024D01*
X10697845Y-11630071D01*
X10697845Y-11639595D01*
X10688321Y-11658643D01*
X10678798Y-11668167D01*
X10659750Y-11677690D01*
X10621655Y-11677690D01*
X10602607Y-11687214D01*
X10593083Y-11696738D01*
X10583560Y-11715786D01*
X10583560Y-11753881D01*
X10593083Y-11772928D01*
X10602607Y-11782452D01*
X10621655Y-11791976D01*
X10659750Y-11791976D01*
X10678798Y-11782452D01*
X10688321Y-11772928D01*
X10697845Y-11753881D01*
X10697845Y-11715786D01*
X10688321Y-11696738D01*
X10678798Y-11687214D01*
X10659750Y-11677690D01*
X10821655Y-11591976D02*
X10840702Y-11591976D01*
X10859750Y-11601500D01*
X10869274Y-11611024D01*
X10878798Y-11630071D01*
X10888321Y-11668167D01*
X10888321Y-11715786D01*
X10878798Y-11753881D01*
X10869274Y-11772928D01*
X10859750Y-11782452D01*
X10840702Y-11791976D01*
X10821655Y-11791976D01*
X10802607Y-11782452D01*
X10793083Y-11772928D01*
X10783560Y-11753881D01*
X10774036Y-11715786D01*
X10774036Y-11668167D01*
X10783560Y-11630071D01*
X10793083Y-11611024D01*
X10802607Y-11601500D01*
X10821655Y-11591976D01*
X11012131Y-11591976D02*
X11031179Y-11591976D01*
X11050226Y-11601500D01*
X11059750Y-11611024D01*
X11069274Y-11630071D01*
X11078798Y-11668167D01*
X11078798Y-11715786D01*
X11069274Y-11753881D01*
X11059750Y-11772928D01*
X11050226Y-11782452D01*
X11031179Y-11791976D01*
X11012131Y-11791976D01*
X10993083Y-11782452D01*
X10983560Y-11772928D01*
X10974036Y-11753881D01*
X10964512Y-11715786D01*
X10964512Y-11668167D01*
X10974036Y-11630071D01*
X10983560Y-11611024D01*
X10993083Y-11601500D01*
X11012131Y-11591976D01*
X11164512Y-11791976D02*
X11164512Y-11658643D01*
X11164512Y-11677690D02*
X11174036Y-11668167D01*
X11193083Y-11658643D01*
X11221655Y-11658643D01*
X11240702Y-11668167D01*
X11250226Y-11687214D01*
X11250226Y-11791976D01*
X11250226Y-11687214D02*
X11259750Y-11668167D01*
X11278798Y-11658643D01*
X11307369Y-11658643D01*
X11326417Y-11668167D01*
X11335940Y-11687214D01*
X11335940Y-11791976D01*
X11431178Y-11791976D02*
X11431178Y-11658643D01*
X11431178Y-11677690D02*
X11440702Y-11668167D01*
X11459750Y-11658643D01*
X11488321Y-11658643D01*
X11507369Y-11668167D01*
X11516893Y-11687214D01*
X11516893Y-11791976D01*
X11516893Y-11687214D02*
X11526417Y-11668167D01*
X11545464Y-11658643D01*
X11574036Y-11658643D01*
X11593083Y-11668167D01*
X11602607Y-11687214D01*
X11602607Y-11791976D01*
X11993083Y-11582452D02*
X11821655Y-11839595D01*
X12250226Y-11591976D02*
X12269274Y-11591976D01*
X12288321Y-11601500D01*
X12297845Y-11611024D01*
X12307369Y-11630071D01*
X12316893Y-11668167D01*
X12316893Y-11715786D01*
X12307369Y-11753881D01*
X12297845Y-11772928D01*
X12288321Y-11782452D01*
X12269274Y-11791976D01*
X12250226Y-11791976D01*
X12231178Y-11782452D01*
X12221655Y-11772928D01*
X12212131Y-11753881D01*
X12202607Y-11715786D01*
X12202607Y-11668167D01*
X12212131Y-11630071D01*
X12221655Y-11611024D01*
X12231178Y-11601500D01*
X12250226Y-11591976D01*
X12402607Y-11772928D02*
X12412131Y-11782452D01*
X12402607Y-11791976D01*
X12393083Y-11782452D01*
X12402607Y-11772928D01*
X12402607Y-11791976D01*
X12535940Y-11591976D02*
X12554988Y-11591976D01*
X12574036Y-11601500D01*
X12583559Y-11611024D01*
X12593083Y-11630071D01*
X12602607Y-11668167D01*
X12602607Y-11715786D01*
X12593083Y-11753881D01*
X12583559Y-11772928D01*
X12574036Y-11782452D01*
X12554988Y-11791976D01*
X12535940Y-11791976D01*
X12516893Y-11782452D01*
X12507369Y-11772928D01*
X12497845Y-11753881D01*
X12488321Y-11715786D01*
X12488321Y-11668167D01*
X12497845Y-11630071D01*
X12507369Y-11611024D01*
X12516893Y-11601500D01*
X12535940Y-11591976D01*
X12669274Y-11591976D02*
X12793083Y-11591976D01*
X12726417Y-11668167D01*
X12754988Y-11668167D01*
X12774036Y-11677690D01*
X12783559Y-11687214D01*
X12793083Y-11706262D01*
X12793083Y-11753881D01*
X12783559Y-11772928D01*
X12774036Y-11782452D01*
X12754988Y-11791976D01*
X12697845Y-11791976D01*
X12678798Y-11782452D01*
X12669274Y-11772928D01*
X12983559Y-11791976D02*
X12869274Y-11791976D01*
X12926417Y-11791976D02*
X12926417Y-11591976D01*
X12907369Y-11620548D01*
X12888321Y-11639595D01*
X12869274Y-11649119D01*
X13164512Y-11591976D02*
X13069274Y-11591976D01*
X13059750Y-11687214D01*
X13069274Y-11677690D01*
X13088321Y-11668167D01*
X13135940Y-11668167D01*
X13154988Y-11677690D01*
X13164512Y-11687214D01*
X13174036Y-11706262D01*
X13174036Y-11753881D01*
X13164512Y-11772928D01*
X13154988Y-11782452D01*
X13135940Y-11791976D01*
X13088321Y-11791976D01*
X13069274Y-11782452D01*
X13059750Y-11772928D01*
X13250226Y-11591976D02*
X13250226Y-11630071D01*
X13326417Y-11591976D02*
X13326417Y-11630071D01*
X13621655Y-11868167D02*
X13612131Y-11858643D01*
X13593083Y-11830071D01*
X13583559Y-11811024D01*
X13574036Y-11782452D01*
X13564512Y-11734833D01*
X13564512Y-11696738D01*
X13574036Y-11649119D01*
X13583559Y-11620548D01*
X13593083Y-11601500D01*
X13612131Y-11572928D01*
X13621655Y-11563405D01*
X13802607Y-11791976D02*
X13688321Y-11791976D01*
X13745464Y-11791976D02*
X13745464Y-11591976D01*
X13726417Y-11620548D01*
X13707369Y-11639595D01*
X13688321Y-11649119D01*
X13916893Y-11677690D02*
X13897845Y-11668167D01*
X13888321Y-11658643D01*
X13878798Y-11639595D01*
X13878798Y-11630071D01*
X13888321Y-11611024D01*
X13897845Y-11601500D01*
X13916893Y-11591976D01*
X13954988Y-11591976D01*
X13974036Y-11601500D01*
X13983559Y-11611024D01*
X13993083Y-11630071D01*
X13993083Y-11639595D01*
X13983559Y-11658643D01*
X13974036Y-11668167D01*
X13954988Y-11677690D01*
X13916893Y-11677690D01*
X13897845Y-11687214D01*
X13888321Y-11696738D01*
X13878798Y-11715786D01*
X13878798Y-11753881D01*
X13888321Y-11772928D01*
X13897845Y-11782452D01*
X13916893Y-11791976D01*
X13954988Y-11791976D01*
X13974036Y-11782452D01*
X13983559Y-11772928D01*
X13993083Y-11753881D01*
X13993083Y-11715786D01*
X13983559Y-11696738D01*
X13974036Y-11687214D01*
X13954988Y-11677690D01*
X14231178Y-11791976D02*
X14231178Y-11591976D01*
X14316893Y-11791976D02*
X14316893Y-11687214D01*
X14307369Y-11668167D01*
X14288321Y-11658643D01*
X14259750Y-11658643D01*
X14240702Y-11668167D01*
X14231178Y-11677690D01*
X14440702Y-11791976D02*
X14421655Y-11782452D01*
X14412131Y-11772928D01*
X14402607Y-11753881D01*
X14402607Y-11696738D01*
X14412131Y-11677690D01*
X14421655Y-11668167D01*
X14440702Y-11658643D01*
X14469274Y-11658643D01*
X14488321Y-11668167D01*
X14497845Y-11677690D01*
X14507369Y-11696738D01*
X14507369Y-11753881D01*
X14497845Y-11772928D01*
X14488321Y-11782452D01*
X14469274Y-11791976D01*
X14440702Y-11791976D01*
X14621655Y-11791976D02*
X14602607Y-11782452D01*
X14593083Y-11763405D01*
X14593083Y-11591976D01*
X14774036Y-11782452D02*
X14754988Y-11791976D01*
X14716893Y-11791976D01*
X14697845Y-11782452D01*
X14688321Y-11763405D01*
X14688321Y-11687214D01*
X14697845Y-11668167D01*
X14716893Y-11658643D01*
X14754988Y-11658643D01*
X14774036Y-11668167D01*
X14783559Y-11687214D01*
X14783559Y-11706262D01*
X14688321Y-11725309D01*
X14859750Y-11782452D02*
X14878798Y-11791976D01*
X14916893Y-11791976D01*
X14935940Y-11782452D01*
X14945464Y-11763405D01*
X14945464Y-11753881D01*
X14935940Y-11734833D01*
X14916893Y-11725309D01*
X14888321Y-11725309D01*
X14869274Y-11715786D01*
X14859750Y-11696738D01*
X14859750Y-11687214D01*
X14869274Y-11668167D01*
X14888321Y-11658643D01*
X14916893Y-11658643D01*
X14935940Y-11668167D01*
X15012131Y-11868167D02*
X15021655Y-11858643D01*
X15040702Y-11830071D01*
X15050226Y-11811024D01*
X15059750Y-11782452D01*
X15069274Y-11734833D01*
X15069274Y-11696738D01*
X15059750Y-11649119D01*
X15050226Y-11620548D01*
X15040702Y-11601500D01*
X15021655Y-11572928D01*
X15012131Y-11563405D01*
D14*
X9989750Y-11905500D02*
X9989750Y-12025500D01*
X9929750Y-11965500D02*
X10049750Y-11965500D01*
D11*
X10412131Y-12055976D02*
X10297845Y-12055976D01*
X10354988Y-12055976D02*
X10354988Y-11855976D01*
X10335940Y-11884548D01*
X10316893Y-11903595D01*
X10297845Y-11913119D01*
X10497845Y-12036928D02*
X10507369Y-12046452D01*
X10497845Y-12055976D01*
X10488321Y-12046452D01*
X10497845Y-12036928D01*
X10497845Y-12055976D01*
X10583560Y-11875024D02*
X10593083Y-11865500D01*
X10612131Y-11855976D01*
X10659750Y-11855976D01*
X10678798Y-11865500D01*
X10688321Y-11875024D01*
X10697845Y-11894071D01*
X10697845Y-11913119D01*
X10688321Y-11941690D01*
X10574036Y-12055976D01*
X10697845Y-12055976D01*
X10821655Y-11855976D02*
X10840702Y-11855976D01*
X10859750Y-11865500D01*
X10869274Y-11875024D01*
X10878798Y-11894071D01*
X10888321Y-11932167D01*
X10888321Y-11979786D01*
X10878798Y-12017881D01*
X10869274Y-12036928D01*
X10859750Y-12046452D01*
X10840702Y-12055976D01*
X10821655Y-12055976D01*
X10802607Y-12046452D01*
X10793083Y-12036928D01*
X10783560Y-12017881D01*
X10774036Y-11979786D01*
X10774036Y-11932167D01*
X10783560Y-11894071D01*
X10793083Y-11875024D01*
X10802607Y-11865500D01*
X10821655Y-11855976D01*
X11012131Y-11855976D02*
X11031179Y-11855976D01*
X11050226Y-11865500D01*
X11059750Y-11875024D01*
X11069274Y-11894071D01*
X11078798Y-11932167D01*
X11078798Y-11979786D01*
X11069274Y-12017881D01*
X11059750Y-12036928D01*
X11050226Y-12046452D01*
X11031179Y-12055976D01*
X11012131Y-12055976D01*
X10993083Y-12046452D01*
X10983560Y-12036928D01*
X10974036Y-12017881D01*
X10964512Y-11979786D01*
X10964512Y-11932167D01*
X10974036Y-11894071D01*
X10983560Y-11875024D01*
X10993083Y-11865500D01*
X11012131Y-11855976D01*
X11164512Y-12055976D02*
X11164512Y-11922643D01*
X11164512Y-11941690D02*
X11174036Y-11932167D01*
X11193083Y-11922643D01*
X11221655Y-11922643D01*
X11240702Y-11932167D01*
X11250226Y-11951214D01*
X11250226Y-12055976D01*
X11250226Y-11951214D02*
X11259750Y-11932167D01*
X11278798Y-11922643D01*
X11307369Y-11922643D01*
X11326417Y-11932167D01*
X11335940Y-11951214D01*
X11335940Y-12055976D01*
X11431178Y-12055976D02*
X11431178Y-11922643D01*
X11431178Y-11941690D02*
X11440702Y-11932167D01*
X11459750Y-11922643D01*
X11488321Y-11922643D01*
X11507369Y-11932167D01*
X11516893Y-11951214D01*
X11516893Y-12055976D01*
X11516893Y-11951214D02*
X11526417Y-11932167D01*
X11545464Y-11922643D01*
X11574036Y-11922643D01*
X11593083Y-11932167D01*
X11602607Y-11951214D01*
X11602607Y-12055976D01*
X11993083Y-11846452D02*
X11821655Y-12103595D01*
X12250226Y-11855976D02*
X12269274Y-11855976D01*
X12288321Y-11865500D01*
X12297845Y-11875024D01*
X12307369Y-11894071D01*
X12316893Y-11932167D01*
X12316893Y-11979786D01*
X12307369Y-12017881D01*
X12297845Y-12036928D01*
X12288321Y-12046452D01*
X12269274Y-12055976D01*
X12250226Y-12055976D01*
X12231178Y-12046452D01*
X12221655Y-12036928D01*
X12212131Y-12017881D01*
X12202607Y-11979786D01*
X12202607Y-11932167D01*
X12212131Y-11894071D01*
X12221655Y-11875024D01*
X12231178Y-11865500D01*
X12250226Y-11855976D01*
X12402607Y-12036928D02*
X12412131Y-12046452D01*
X12402607Y-12055976D01*
X12393083Y-12046452D01*
X12402607Y-12036928D01*
X12402607Y-12055976D01*
X12535940Y-11855976D02*
X12554988Y-11855976D01*
X12574036Y-11865500D01*
X12583559Y-11875024D01*
X12593083Y-11894071D01*
X12602607Y-11932167D01*
X12602607Y-11979786D01*
X12593083Y-12017881D01*
X12583559Y-12036928D01*
X12574036Y-12046452D01*
X12554988Y-12055976D01*
X12535940Y-12055976D01*
X12516893Y-12046452D01*
X12507369Y-12036928D01*
X12497845Y-12017881D01*
X12488321Y-11979786D01*
X12488321Y-11932167D01*
X12497845Y-11894071D01*
X12507369Y-11875024D01*
X12516893Y-11865500D01*
X12535940Y-11855976D01*
X12774036Y-11922643D02*
X12774036Y-12055976D01*
X12726417Y-11846452D02*
X12678798Y-11989309D01*
X12802607Y-11989309D01*
X12859750Y-11855976D02*
X12993083Y-11855976D01*
X12907369Y-12055976D01*
X13059750Y-11875024D02*
X13069274Y-11865500D01*
X13088321Y-11855976D01*
X13135940Y-11855976D01*
X13154988Y-11865500D01*
X13164512Y-11875024D01*
X13174036Y-11894071D01*
X13174036Y-11913119D01*
X13164512Y-11941690D01*
X13050226Y-12055976D01*
X13174036Y-12055976D01*
X13250226Y-11855976D02*
X13250226Y-11894071D01*
X13326417Y-11855976D02*
X13326417Y-11894071D01*
X13621655Y-12132167D02*
X13612131Y-12122643D01*
X13593083Y-12094071D01*
X13583559Y-12075024D01*
X13574036Y-12046452D01*
X13564512Y-11998833D01*
X13564512Y-11960738D01*
X13574036Y-11913119D01*
X13583559Y-11884548D01*
X13593083Y-11865500D01*
X13612131Y-11836928D01*
X13621655Y-11827405D01*
X13783559Y-11855976D02*
X13745464Y-11855976D01*
X13726417Y-11865500D01*
X13716893Y-11875024D01*
X13697845Y-11903595D01*
X13688321Y-11941690D01*
X13688321Y-12017881D01*
X13697845Y-12036928D01*
X13707369Y-12046452D01*
X13726417Y-12055976D01*
X13764512Y-12055976D01*
X13783559Y-12046452D01*
X13793083Y-12036928D01*
X13802607Y-12017881D01*
X13802607Y-11970262D01*
X13793083Y-11951214D01*
X13783559Y-11941690D01*
X13764512Y-11932167D01*
X13726417Y-11932167D01*
X13707369Y-11941690D01*
X13697845Y-11951214D01*
X13688321Y-11970262D01*
X14040702Y-12055976D02*
X14040702Y-11855976D01*
X14126417Y-12055976D02*
X14126417Y-11951214D01*
X14116893Y-11932167D01*
X14097845Y-11922643D01*
X14069274Y-11922643D01*
X14050226Y-11932167D01*
X14040702Y-11941690D01*
X14250226Y-12055976D02*
X14231178Y-12046452D01*
X14221655Y-12036928D01*
X14212131Y-12017881D01*
X14212131Y-11960738D01*
X14221655Y-11941690D01*
X14231178Y-11932167D01*
X14250226Y-11922643D01*
X14278798Y-11922643D01*
X14297845Y-11932167D01*
X14307369Y-11941690D01*
X14316893Y-11960738D01*
X14316893Y-12017881D01*
X14307369Y-12036928D01*
X14297845Y-12046452D01*
X14278798Y-12055976D01*
X14250226Y-12055976D01*
X14431178Y-12055976D02*
X14412131Y-12046452D01*
X14402607Y-12027405D01*
X14402607Y-11855976D01*
X14583559Y-12046452D02*
X14564512Y-12055976D01*
X14526417Y-12055976D01*
X14507369Y-12046452D01*
X14497845Y-12027405D01*
X14497845Y-11951214D01*
X14507369Y-11932167D01*
X14526417Y-11922643D01*
X14564512Y-11922643D01*
X14583559Y-11932167D01*
X14593083Y-11951214D01*
X14593083Y-11970262D01*
X14497845Y-11989309D01*
X14669274Y-12046452D02*
X14688321Y-12055976D01*
X14726417Y-12055976D01*
X14745464Y-12046452D01*
X14754988Y-12027405D01*
X14754988Y-12017881D01*
X14745464Y-11998833D01*
X14726417Y-11989309D01*
X14697845Y-11989309D01*
X14678798Y-11979786D01*
X14669274Y-11960738D01*
X14669274Y-11951214D01*
X14678798Y-11932167D01*
X14697845Y-11922643D01*
X14726417Y-11922643D01*
X14745464Y-11932167D01*
X14821655Y-12132167D02*
X14831178Y-12122643D01*
X14850226Y-12094071D01*
X14859750Y-12075024D01*
X14869274Y-12046452D01*
X14878798Y-11998833D01*
X14878798Y-11960738D01*
X14869274Y-11913119D01*
X14859750Y-11884548D01*
X14850226Y-11865500D01*
X14831178Y-11836928D01*
X14821655Y-11827405D01*
D15*
X10031445Y-12273695D02*
X10031445Y-12185305D01*
X9943055Y-12185305D01*
X9943055Y-12273695D01*
X10031445Y-12273695D01*
D11*
X10412131Y-12319976D02*
X10297845Y-12319976D01*
X10354988Y-12319976D02*
X10354988Y-12119976D01*
X10335940Y-12148548D01*
X10316893Y-12167595D01*
X10297845Y-12177119D01*
X10497845Y-12300928D02*
X10507369Y-12310452D01*
X10497845Y-12319976D01*
X10488321Y-12310452D01*
X10497845Y-12300928D01*
X10497845Y-12319976D01*
X10583560Y-12139024D02*
X10593083Y-12129500D01*
X10612131Y-12119976D01*
X10659750Y-12119976D01*
X10678798Y-12129500D01*
X10688321Y-12139024D01*
X10697845Y-12158071D01*
X10697845Y-12177119D01*
X10688321Y-12205690D01*
X10574036Y-12319976D01*
X10697845Y-12319976D01*
X10878798Y-12119976D02*
X10783560Y-12119976D01*
X10774036Y-12215214D01*
X10783560Y-12205690D01*
X10802607Y-12196167D01*
X10850226Y-12196167D01*
X10869274Y-12205690D01*
X10878798Y-12215214D01*
X10888321Y-12234262D01*
X10888321Y-12281881D01*
X10878798Y-12300928D01*
X10869274Y-12310452D01*
X10850226Y-12319976D01*
X10802607Y-12319976D01*
X10783560Y-12310452D01*
X10774036Y-12300928D01*
X11012131Y-12119976D02*
X11031179Y-12119976D01*
X11050226Y-12129500D01*
X11059750Y-12139024D01*
X11069274Y-12158071D01*
X11078798Y-12196167D01*
X11078798Y-12243786D01*
X11069274Y-12281881D01*
X11059750Y-12300928D01*
X11050226Y-12310452D01*
X11031179Y-12319976D01*
X11012131Y-12319976D01*
X10993083Y-12310452D01*
X10983560Y-12300928D01*
X10974036Y-12281881D01*
X10964512Y-12243786D01*
X10964512Y-12196167D01*
X10974036Y-12158071D01*
X10983560Y-12139024D01*
X10993083Y-12129500D01*
X11012131Y-12119976D01*
X11164512Y-12319976D02*
X11164512Y-12186643D01*
X11164512Y-12205690D02*
X11174036Y-12196167D01*
X11193083Y-12186643D01*
X11221655Y-12186643D01*
X11240702Y-12196167D01*
X11250226Y-12215214D01*
X11250226Y-12319976D01*
X11250226Y-12215214D02*
X11259750Y-12196167D01*
X11278798Y-12186643D01*
X11307369Y-12186643D01*
X11326417Y-12196167D01*
X11335940Y-12215214D01*
X11335940Y-12319976D01*
X11431178Y-12319976D02*
X11431178Y-12186643D01*
X11431178Y-12205690D02*
X11440702Y-12196167D01*
X11459750Y-12186643D01*
X11488321Y-12186643D01*
X11507369Y-12196167D01*
X11516893Y-12215214D01*
X11516893Y-12319976D01*
X11516893Y-12215214D02*
X11526417Y-12196167D01*
X11545464Y-12186643D01*
X11574036Y-12186643D01*
X11593083Y-12196167D01*
X11602607Y-12215214D01*
X11602607Y-12319976D01*
X11993083Y-12110452D02*
X11821655Y-12367595D01*
X12250226Y-12119976D02*
X12269274Y-12119976D01*
X12288321Y-12129500D01*
X12297845Y-12139024D01*
X12307369Y-12158071D01*
X12316893Y-12196167D01*
X12316893Y-12243786D01*
X12307369Y-12281881D01*
X12297845Y-12300928D01*
X12288321Y-12310452D01*
X12269274Y-12319976D01*
X12250226Y-12319976D01*
X12231178Y-12310452D01*
X12221655Y-12300928D01*
X12212131Y-12281881D01*
X12202607Y-12243786D01*
X12202607Y-12196167D01*
X12212131Y-12158071D01*
X12221655Y-12139024D01*
X12231178Y-12129500D01*
X12250226Y-12119976D01*
X12402607Y-12300928D02*
X12412131Y-12310452D01*
X12402607Y-12319976D01*
X12393083Y-12310452D01*
X12402607Y-12300928D01*
X12402607Y-12319976D01*
X12535940Y-12119976D02*
X12554988Y-12119976D01*
X12574036Y-12129500D01*
X12583559Y-12139024D01*
X12593083Y-12158071D01*
X12602607Y-12196167D01*
X12602607Y-12243786D01*
X12593083Y-12281881D01*
X12583559Y-12300928D01*
X12574036Y-12310452D01*
X12554988Y-12319976D01*
X12535940Y-12319976D01*
X12516893Y-12310452D01*
X12507369Y-12300928D01*
X12497845Y-12281881D01*
X12488321Y-12243786D01*
X12488321Y-12196167D01*
X12497845Y-12158071D01*
X12507369Y-12139024D01*
X12516893Y-12129500D01*
X12535940Y-12119976D01*
X12774036Y-12186643D02*
X12774036Y-12319976D01*
X12726417Y-12110452D02*
X12678798Y-12253309D01*
X12802607Y-12253309D01*
X12888321Y-12319976D02*
X12926417Y-12319976D01*
X12945464Y-12310452D01*
X12954988Y-12300928D01*
X12974036Y-12272357D01*
X12983559Y-12234262D01*
X12983559Y-12158071D01*
X12974036Y-12139024D01*
X12964512Y-12129500D01*
X12945464Y-12119976D01*
X12907369Y-12119976D01*
X12888321Y-12129500D01*
X12878798Y-12139024D01*
X12869274Y-12158071D01*
X12869274Y-12205690D01*
X12878798Y-12224738D01*
X12888321Y-12234262D01*
X12907369Y-12243786D01*
X12945464Y-12243786D01*
X12964512Y-12234262D01*
X12974036Y-12224738D01*
X12983559Y-12205690D01*
X13059750Y-12139024D02*
X13069274Y-12129500D01*
X13088321Y-12119976D01*
X13135940Y-12119976D01*
X13154988Y-12129500D01*
X13164512Y-12139024D01*
X13174036Y-12158071D01*
X13174036Y-12177119D01*
X13164512Y-12205690D01*
X13050226Y-12319976D01*
X13174036Y-12319976D01*
X13250226Y-12119976D02*
X13250226Y-12158071D01*
X13326417Y-12119976D02*
X13326417Y-12158071D01*
X13621655Y-12396167D02*
X13612131Y-12386643D01*
X13593083Y-12358071D01*
X13583559Y-12339024D01*
X13574036Y-12310452D01*
X13564512Y-12262833D01*
X13564512Y-12224738D01*
X13574036Y-12177119D01*
X13583559Y-12148548D01*
X13593083Y-12129500D01*
X13612131Y-12100928D01*
X13621655Y-12091405D01*
X13783559Y-12119976D02*
X13745464Y-12119976D01*
X13726417Y-12129500D01*
X13716893Y-12139024D01*
X13697845Y-12167595D01*
X13688321Y-12205690D01*
X13688321Y-12281881D01*
X13697845Y-12300928D01*
X13707369Y-12310452D01*
X13726417Y-12319976D01*
X13764512Y-12319976D01*
X13783559Y-12310452D01*
X13793083Y-12300928D01*
X13802607Y-12281881D01*
X13802607Y-12234262D01*
X13793083Y-12215214D01*
X13783559Y-12205690D01*
X13764512Y-12196167D01*
X13726417Y-12196167D01*
X13707369Y-12205690D01*
X13697845Y-12215214D01*
X13688321Y-12234262D01*
X14040702Y-12319976D02*
X14040702Y-12119976D01*
X14126417Y-12319976D02*
X14126417Y-12215214D01*
X14116893Y-12196167D01*
X14097845Y-12186643D01*
X14069274Y-12186643D01*
X14050226Y-12196167D01*
X14040702Y-12205690D01*
X14250226Y-12319976D02*
X14231178Y-12310452D01*
X14221655Y-12300928D01*
X14212131Y-12281881D01*
X14212131Y-12224738D01*
X14221655Y-12205690D01*
X14231178Y-12196167D01*
X14250226Y-12186643D01*
X14278798Y-12186643D01*
X14297845Y-12196167D01*
X14307369Y-12205690D01*
X14316893Y-12224738D01*
X14316893Y-12281881D01*
X14307369Y-12300928D01*
X14297845Y-12310452D01*
X14278798Y-12319976D01*
X14250226Y-12319976D01*
X14431178Y-12319976D02*
X14412131Y-12310452D01*
X14402607Y-12291405D01*
X14402607Y-12119976D01*
X14583559Y-12310452D02*
X14564512Y-12319976D01*
X14526417Y-12319976D01*
X14507369Y-12310452D01*
X14497845Y-12291405D01*
X14497845Y-12215214D01*
X14507369Y-12196167D01*
X14526417Y-12186643D01*
X14564512Y-12186643D01*
X14583559Y-12196167D01*
X14593083Y-12215214D01*
X14593083Y-12234262D01*
X14497845Y-12253309D01*
X14669274Y-12310452D02*
X14688321Y-12319976D01*
X14726417Y-12319976D01*
X14745464Y-12310452D01*
X14754988Y-12291405D01*
X14754988Y-12281881D01*
X14745464Y-12262833D01*
X14726417Y-12253309D01*
X14697845Y-12253309D01*
X14678798Y-12243786D01*
X14669274Y-12224738D01*
X14669274Y-12215214D01*
X14678798Y-12196167D01*
X14697845Y-12186643D01*
X14726417Y-12186643D01*
X14745464Y-12196167D01*
X14821655Y-12396167D02*
X14831178Y-12386643D01*
X14850226Y-12358071D01*
X14859750Y-12339024D01*
X14869274Y-12310452D01*
X14878798Y-12262833D01*
X14878798Y-12224738D01*
X14869274Y-12177119D01*
X14859750Y-12148548D01*
X14850226Y-12129500D01*
X14831178Y-12100928D01*
X14821655Y-12091405D01*
M02*
