M48
; DRILL file {KiCad 6.0.8-1.fc36} date Sat 05 Nov 2022 02:52:56 AM CET
; FORMAT={-:-/ absolute / metric / decimal}
; #@! TF.CreationDate,2022-11-05T02:52:56+01:00
; #@! TF.GenerationSoftware,Kicad,Pcbnew,6.0.8-1.fc36
; #@! TF.FileFunction,Plated,1,2,PTH
FMAT,2
METRIC
; #@! TA.AperFunction,Plated,PTH,ViaDrill
T1C0.400
; #@! TA.AperFunction,Plated,PTH,ComponentDrill
T2C0.800
; #@! TA.AperFunction,Plated,PTH,ComponentDrill
T3C1.200
; #@! TA.AperFunction,Plated,PTH,ComponentDrill
T4C1.250
%
G90
G05
T1
X114.492Y-101.6
X156.403Y-85.09
X172.08Y-96.52
T2
X120.65Y-69.845
X120.65Y-77.465
X123.19Y-69.845
X123.19Y-77.465
X135.89Y-69.845
X135.89Y-77.465
X138.43Y-69.845
X138.43Y-77.465
X148.6Y-69.84
X148.6Y-77.46
X151.14Y-69.84
X151.14Y-77.46
X153.68Y-69.84
X153.68Y-77.46
X156.22Y-69.84
X156.22Y-77.46
X166.623Y-69.85
X174.123Y-69.85
T3
X106.68Y-85.09
X106.68Y-88.59
X106.68Y-101.6
X106.68Y-105.1
X106.872Y-68.58
X106.872Y-72.08
T4
X124.46Y-83.82
X124.46Y-93.98
X124.46Y-104.14
X144.78Y-91.44
X144.78Y-96.52
X144.78Y-104.14
T0
M30
